<svg xmlns="http://www.w3.org/2000/svg" width="13" height="13" viewBox="0 0 13 13">
  <defs>
    <style>
      .cls-1 {
        fill: #e91c23;
      }
    </style>
  </defs>
  <g id="Icon_feather-clock" data-name="Icon feather-clock" transform="translate(-1.5 -1.5)">
    <path id="Path_10371" data-name="Path 10371" class="cls-1" d="M8,1.5a6.5,6.5,0,0,1,2.53,12.489A6.5,6.5,0,0,1,5.47,2.011,6.46,6.46,0,0,1,8,1.5ZM8,13.318A5.318,5.318,0,1,0,2.682,8,5.324,5.324,0,0,0,8,13.318Z"/>
    <path id="Path_10372" data-name="Path 10372" class="cls-1" d="M19.5,13.511a.6.6,0,0,1-.268-.064l-2.4-1.2a.6.6,0,0,1-.332-.538V8.1a.6.6,0,1,1,1.2,0v3.235l2.072,1.036a.6.6,0,0,1-.269,1.139Z" transform="translate(-9.129 -3.67)"/>
  </g>
</svg>
