<svg xmlns="http://www.w3.org/2000/svg" width="18" height="18" viewBox="0 0 18 18">
  <defs>
    <style>
      .cls-1 {
        fill: #fff;
        stroke: #e91c23;
      }

      .cls-2 {
        fill: #e91c23;
      }

      .cls-3 {
        stroke: none;
      }

      .cls-4 {
        fill: none;
      }
    </style>
  </defs>
  <g id="delivery" transform="translate(-3849 125)">
    <g id="Ellipse_40" data-name="Ellipse 40" class="cls-1" transform="translate(3849 -125)">
      <circle class="cls-3" cx="9" cy="9" r="9"/>
      <circle class="cls-4" cx="9" cy="9" r="8.5"/>
    </g>
    <g id="Group_11627" data-name="Group 11627" transform="translate(4745.688 121.53)">
      <path id="Path_10354" data-name="Path 10354" class="cls-2" d="M-893.57-236.029h-.852c-.207,0-.27-.053-.262-.234a2.581,2.581,0,0,1,1.35-2.169l.164-.1h-.163c-.376,0-.752,0-1.127,0-.156,0-.224-.058-.224-.2,0-1,0-2,0-3a.864.864,0,0,1,.892-.8q1.329-.01,2.657,0a.874.874,0,0,1,.9.832c.005.393,0,.786,0,1.18,0,.044,0,.088,0,.152h.147c.438,0,.877,0,1.315,0a1.073,1.073,0,0,1,1.131.9c.027.192-.039.261-.251.263h-.29c0,.042-.009.077-.009.111q0,.415,0,.831c0,.17.061.227.245.227q.684,0,1.369,0c.179,0,.241-.057.241-.218q0-1.426,0-2.853c0-.218.049-.263.288-.263h1.063l-.2-.829h-1.142v-.326a.927.927,0,0,1,.1-.009h1.141c.162,0,.215.039.25.18l.891,3.7c.01.043.023.085.036.136a2.915,2.915,0,0,1,1.564.247l-.166.284a2.629,2.629,0,0,0-1.315-.191l.07.308a1.828,1.828,0,0,1,2.063,1.526,1.707,1.707,0,0,1-1.476,1.772,1.907,1.907,0,0,1-2.123-1.07,1.647,1.647,0,0,1,1.171-2.157l-.073-.313c-.054.015-.1.025-.144.04a2.028,2.028,0,0,0-1.433,1.814c-.005.17-.066.222-.267.222h-3.827a1.644,1.644,0,0,1-.732,1.158,1.957,1.957,0,0,1-1.2.337A1.807,1.807,0,0,1-893.57-236.029Z" transform="translate(1 1)"/>
    </g>
  </g>
</svg>
