<svg xmlns="http://www.w3.org/2000/svg" width="19.059" height="18" viewBox="0 0 19.059 18">
  <path id="home" class="cls-1" d="M51.013,25.6l7.964-4.775a1.076,1.076,0,0,1,1.1,0L68.045,25.6a2.069,2.069,0,0,1,1.013,1.773v9.223a2.1,2.1,0,0,1-2.118,2.078H52.118A2.1,2.1,0,0,1,50,36.594V27.372A2.069,2.069,0,0,1,51.013,25.6Zm6.4,4.763A1.049,1.049,0,0,0,56.353,31.4v3.116a1.049,1.049,0,0,0,1.059,1.039h4.235a1.049,1.049,0,0,0,1.059-1.039V31.4a1.049,1.049,0,0,0-1.059-1.039Z" transform="translate(-50 -20.672)"/>
</svg>
