<svg xmlns="http://www.w3.org/2000/svg" width="20.037" height="18.626" viewBox="0 0 20.037 18.626">
  <g id="wallet" transform="translate(835.292 755.926)">
    <path id="Path_10395" data-name="Path 10395" class="cls-1" d="M-835.292-584.168v-13a1.164,1.164,0,0,1,1.335-.947h15.714a1.121,1.121,0,0,1,1.221,1.263q0,1.369,0,2.737c0,.069-.006.138-.01.219h-.226q-3.076,0-6.153,0a1.886,1.886,0,0,0-1.917,1.944c-.013.847-.017,1.694.007,2.54a2.06,2.06,0,0,0,.188.791,1.8,1.8,0,0,0,1.74,1.095q3.067.007,6.134,0h.221a.919.919,0,0,1,.014.1c0,1.011.011,2.022,0,3.032a1.1,1.1,0,0,1-1.17,1.158q-7.961,0-15.923-.006a1.538,1.538,0,0,1-.647-.174A1.151,1.151,0,0,1-835.292-584.168Z" transform="translate(0 -154.071)"/>
    <path id="Path_10396" data-name="Path 10396" class="cls-1" d="M-692.322-752.247c-.107-.416-.2-.808-.308-1.2a1.069,1.069,0,0,0-1.437-.858l-6.775,1.96c-.074.021-.146.05-.218.076l.007.021Zm-3.717-2.195c-.127-.274-.242-.526-.361-.777a1.048,1.048,0,0,0-1.539-.554q-3.266,1.711-6.527,3.431a.912.912,0,0,0-.1.075l.015.047a5.224,5.224,0,0,0,1.086-.075c2.228-.623,4.448-1.276,6.67-1.92C-696.551-754.288-696.3-754.363-696.039-754.442Z" transform="translate(-127.014 0)"/>
    <path id="Path_10397" data-name="Path 10397" class="cls-1" d="M-432.389-417.72a1.183,1.183,0,0,1-.691.827,1.709,1.709,0,0,1-.556.1q-3.265.01-6.531,0a1.156,1.156,0,0,1-1.258-1.266q0-1.132,0-2.265a1.157,1.157,0,0,1,1.267-1.258h6.353a1.214,1.214,0,0,1,1.415.943Zm-5.531-1.437a.59.59,0,0,0-.319-.676,1.137,1.137,0,0,0-.88.009.528.528,0,0,0-.309.545c0,.3-.055.634.278.8a1.039,1.039,0,0,0,.965-.007C-437.924-418.624-437.9-418.89-437.92-419.157Z" transform="translate(-382.866 -325.928)"/>
    <path id="Path_10398" data-name="Path 10398" class="cls-1" d="M-563.774-698.783h-9.28l-.007-.021c.077-.025.154-.054.232-.076l7.2-1.96a1.141,1.141,0,0,1,1.528.858C-563.991-699.591-563.887-699.2-563.774-698.783Z" transform="translate(-255.317 -53.464)"/>
    <path id="Path_10399" data-name="Path 10399" class="cls-1" d="M-695.5-754.442c-.281.079-.544.154-.808.226-2.362.644-4.721,1.3-7.089,1.92a5.892,5.892,0,0,1-1.154.075l-.016-.047a.974.974,0,0,1,.111-.075q3.467-1.717,6.936-3.431a1.141,1.141,0,0,1,1.635.554C-695.762-754.968-695.639-754.716-695.5-754.442Z" transform="translate(-127.269 0)"/>
  </g>
</svg>
