<svg xmlns="http://www.w3.org/2000/svg" width="14" height="14" viewBox="0 0 14 14">
  <defs>
    <style>
      .cls-1 {
        fill: #e91c23;
      }
    </style>
  </defs>
  <path id="re-order" class="cls-1" d="M-396,45.457c.035-.266.059-.535.108-.8a6.871,6.871,0,0,1,3.68-5.089,5.749,5.749,0,0,1,3.167-.665,6.509,6.509,0,0,1,5.653,4.013,7.007,7.007,0,0,1,.593,3.752,7.045,7.045,0,0,1-.526,2.053c-.022.053-.045.105-.066.158,0,.008,0,.018,0,.044.209-.071.413-.148.621-.208a.774.774,0,0,1,.32-.036.545.545,0,0,1,.445.513.573.573,0,0,1-.387.595c-.427.152-.856.3-1.285.441-.238.081-.474.171-.716.235a.519.519,0,0,1-.639-.376q-.323-1.026-.632-2.058a.58.58,0,0,1,.345-.744.541.541,0,0,1,.689.4c.078.24.149.483.231.749a5.672,5.672,0,0,0,.426-1.3,6.063,6.063,0,0,0-.3-3.482,5.715,5.715,0,0,0-1.724-2.38,5.236,5.236,0,0,0-3.752-1.219,5.212,5.212,0,0,0-2.841,1.076,5.732,5.732,0,0,0-1.876,2.45,5.991,5.991,0,0,0-.4,3.079,5.822,5.822,0,0,0,1.55,3.334,5.3,5.3,0,0,0,3.69,1.74c.1.005.2.005.3.017a.559.559,0,0,1,.487.591.55.55,0,0,1-.549.544A6.122,6.122,0,0,1-392.6,52a6.849,6.849,0,0,1-3.166-4.287c-.107-.405-.141-.832-.209-1.248-.008-.047-.017-.094-.025-.14Z" transform="translate(396 -38.886)"/>
</svg>
