<svg xmlns="http://www.w3.org/2000/svg" width="47" height="41" viewBox="0 0 47 41">
  <defs>
    <style>
      .cls-1 {
        fill: #e91c23;
      }
    </style>
  </defs>
  <g id="refund" transform="translate(0)">
    <path id="Path_10388" data-name="Path 10388" class="cls-1" d="M-738.64-800.333c.08.273.152.548.24.818a4.871,4.871,0,0,0,4.636,3.372c2.646.017,5.293.005,7.939.005q14.547,0,29.094,0a4.877,4.877,0,0,0,4.945-3.745,5.054,5.054,0,0,0,.137-1.172q.013-8.641.009-17.281a1.024,1.024,0,0,0-.617-1.068.954.954,0,0,0-1.316.732,4.178,4.178,0,0,0-.02.592q0,8.412,0,16.825a2.926,2.926,0,0,1-2.128,3.043,3.922,3.922,0,0,1-1.04.132q-18.379.01-36.758,0a2.957,2.957,0,0,1-3.168-3.133c-.006-1.4,0-2.8,0-4.195,0-.134.013-.268.024-.468h.551c4.008,0,8.015.008,12.023,0a4.647,4.647,0,0,0,4.914-4.062,41.349,41.349,0,0,0,0-7.417,4.649,4.649,0,0,0-4.912-4.065c-3.992-.012-7.985,0-11.977,0h-.6c-.011-.176-.027-.321-.028-.467,0-1.4-.006-2.8,0-4.195a2.958,2.958,0,0,1,3.167-3.135q10.417-.006,20.834,0c.168,0,.337,0,.5-.006a.971.971,0,0,0,.958-.966.983.983,0,0,0-.97-.962c-.153-.01-.306,0-.459,0h-20.6c-2.913,0-4.624,1.327-5.325,4.128-.006.026-.037.045-.057.068Zm2.008-19.13c.157-.008.291-.022.425-.022q6.056,0,12.111,0a2.928,2.928,0,0,1,3.078,3.07q.007,2.735,0,5.47a2.936,2.936,0,0,1-3.154,3.132q-5.987,0-11.973,0h-.488Z" transform="translate(738.64 837.134)"/>
    <path id="Path_10389" data-name="Path 10389" class="cls-1" d="M-525.015-675.5h-4.577a3.789,3.789,0,0,0-.512.011.988.988,0,0,0-.656,1.595,3.185,3.185,0,0,0,.288.3l9.5,9.5c.722.722,1.165.723,1.889,0q4.734-4.734,9.466-9.469l.165-.165a.987.987,0,0,0,.29-1.141,1,1,0,0,0-1.036-.638c-1.43,0-2.861,0-4.291,0h-.565v-.525q0-4.6,0-9.191a2.017,2.017,0,0,0-2.221-2.227q-2.776,0-5.551,0a2.01,2.01,0,0,0-2.185,2.175q-.009,4.572,0,9.144C-525.015-675.937-525.015-675.751-525.015-675.5Zm12.38,1.983-7.354,7.356-7.354-7.356h2.977c1.05,0,1.356-.309,1.357-1.363q0-4.989,0-9.978v-.563h5.971v.593q0,5.059,0,10.118c0,.851.338,1.188,1.184,1.192C-514.781-673.512-513.71-673.515-512.635-673.515Z" transform="translate(556.081 687.444)"/>
    <path id="Path_10390" data-name="Path 10390" class="cls-1" d="M-682.766-715.37a3.986,3.986,0,0,0-3.973-3.972,4,4,0,0,0-3.975,4.025,4,4,0,0,0,4,3.947A3.982,3.982,0,0,0-682.766-715.37Zm-3.949-1.966a1.983,1.983,0,0,1,1.969,2,1.983,1.983,0,0,1-2.01,1.959,1.988,1.988,0,0,1-1.972-2A1.988,1.988,0,0,1-686.715-717.336Z" transform="translate(696.687 738.769)"/>
  </g>
</svg>
